<svg xmlns="http://www.w3.org/2000/svg" width="171" height="155" viewBox="0 0 171 155">
<g>
<path d="M 114.97 115.34 C112.47,116.25 109.10,116.99 107.47,116.97 C101.90,116.91 93.98,113.40 89.50,109.00 L 85.18 104.76 L 78.89 106.88 C75.44,108.05 70.98,109.00 68.99,109.00 C54.15,109.00 40.48,95.80 39.23,80.29 C38.67,73.30 39.76,71.00 43.62,71.00 C45.88,71.00 46.00,71.32 46.00,77.46 C46.00,98.42 63.60,112.35 78.30,103.02 C81.37,101.08 83.00,99.34 83.00,98.02 C83.00,96.86 83.66,96.00 84.56,96.00 C85.89,96.00 91.67,85.32 90.79,84.47 C90.63,84.32 86.94,84.03 82.58,83.83 C77.45,83.60 74.51,83.04 74.25,82.24 C73.93,81.30 76.76,81.00 85.92,81.00 C95.85,81.00 98.00,81.26 98.00,82.46 C98.00,85.79 93.74,94.94 90.35,98.90 L 86.72 103.14 L 91.09 107.59 C96.08,112.68 101.21,114.52 107.87,113.60 C117.00,112.35 123.00,105.97 123.00,97.50 C123.00,93.38 122.54,92.30 119.60,89.53 C117.72,87.76 113.42,85.28 110.03,84.01 C103.42,81.54 103.42,79.78 110.03,80.18 C111.97,80.30 114.09,80.06 114.74,79.66 C116.36,78.66 122.85,82.13 126.44,85.91 C128.83,88.43 129.45,90.07 129.79,94.83 C130.51,104.67 125.63,111.42 114.97,115.34 Z" fill="rgb(71,136,175)"/>
<path d="M 111.86 77.66 C113.53,78.31 115.09,78.97 116.53,79.63 C115.74,79.44 115.11,79.43 114.74,79.66 C114.09,80.06 111.97,80.30 110.03,80.18 C103.42,79.78 103.42,81.54 110.03,84.01 C112.05,84.77 114.40,85.95 116.36,87.16 C113.97,85.74 110.77,84.30 107.02,82.95 C97.71,79.62 96.00,78.54 92.21,73.62 C87.55,67.54 90.33,58.47 98.07,54.46 C102.22,52.32 111.29,52.60 116.02,55.01 C119.82,56.95 123.00,61.25 123.00,64.45 C123.00,66.79 121.23,66.31 120.45,63.75 C116.85,51.87 97.00,53.51 97.00,65.68 C97.00,70.50 100.36,73.21 111.86,77.66 ZM 50.69 94.82 C47.79,90.10 46.00,84.14 46.00,77.46 C46.00,71.32 45.88,71.00 43.62,71.00 C40.69,71.00 39.35,72.33 39.13,76.03 C38.88,56.96 49.41,44.34 66.76,43.21 C75.21,42.66 81.19,44.47 86.61,49.23 C90.26,52.43 90.78,54.11 88.66,55.87 C87.62,56.73 86.59,56.07 84.03,52.88 C79.95,47.81 75.78,46.00 68.18,46.00 C63.42,46.00 61.53,46.52 58.23,48.75 C49.83,54.42 46.00,62.94 46.00,75.94 C46.00,83.29 47.71,89.78 50.69,94.82 ZM 40.34 86.25 C41.69,90.86 44.11,95.10 47.27,98.64 C43.72,94.86 41.54,91.01 40.34,86.25 ZM 52.83 103.62 C56.19,106.00 59.97,107.70 63.93,108.49 C60.02,107.83 56.36,106.22 52.83,103.62 ZM 129.79 94.75 C129.51,90.97 129.05,89.17 127.64,87.30 C129.20,89.16 129.50,90.70 129.78,94.69 C129.79,94.71 129.79,94.73 129.79,94.75 ZM 114.97 115.34 C121.31,113.01 125.61,109.67 127.90,105.28 C125.62,109.68 121.33,113.00 114.97,115.34 ZM 67.72 105.95 C66.11,105.88 64.53,105.58 62.99,105.07 C64.50,105.55 66.08,105.85 67.72,105.95 ZM 75.79 104.38 C75.04,104.72 74.28,105.00 73.52,105.23 C74.28,104.99 75.04,104.71 75.79,104.38 ZM 122.66 93.76 C122.26,92.28 121.39,91.22 119.60,89.53 C121.38,91.21 122.25,92.27 122.66,93.76 ZM 76.18 107.70 C77.11,107.45 78.03,107.17 78.89,106.88 C77.98,107.19 77.07,107.46 76.18,107.70 Z" fill="rgb(90,98,144)"/>
<path d="M 0.00 77.50 L 0.00 0.00 L 85.50 0.00 L 171.00 0.00 L 171.00 77.50 L 171.00 155.00 L 85.50 155.00 L 0.00 155.00 L 0.00 77.50 ZM 114.97 115.34 C125.69,111.40 130.51,104.68 129.78,94.69 C129.39,89.28 128.99,88.38 125.43,85.06 C122.85,82.66 118.18,80.11 111.86,77.66 C100.36,73.21 97.00,70.50 97.00,65.68 C97.00,53.51 116.85,51.87 120.45,63.75 C121.23,66.31 123.00,66.79 123.00,64.45 C123.00,61.25 119.82,56.95 116.02,55.01 C111.29,52.60 102.22,52.32 98.07,54.46 C90.33,58.47 87.55,67.54 92.21,73.62 C96.00,78.54 97.71,79.62 107.02,82.95 C112.83,85.03 117.29,87.35 119.53,89.46 C122.55,92.31 123.00,93.36 123.00,97.50 C123.00,105.97 117.00,112.35 107.87,113.60 C101.21,114.52 96.08,112.68 91.09,107.59 L 86.72 103.14 L 90.35 98.90 C93.74,94.94 98.00,85.79 98.00,82.46 C98.00,81.26 95.85,81.00 85.92,81.00 C76.76,81.00 73.93,81.30 74.25,82.24 C74.51,83.04 77.45,83.60 82.58,83.83 C86.94,84.03 90.63,84.32 90.79,84.47 C91.67,85.32 85.89,96.00 84.56,96.00 C83.66,96.00 83.00,96.86 83.00,98.02 C83.00,101.20 74.65,106.00 69.12,106.00 C55.67,106.00 46.00,93.42 46.00,75.94 C46.00,62.94 49.83,54.42 58.23,48.75 C61.53,46.52 63.42,46.00 68.18,46.00 C75.78,46.00 79.95,47.81 84.03,52.88 C86.59,56.07 87.62,56.73 88.66,55.87 C90.78,54.11 90.26,52.43 86.61,49.23 C81.19,44.47 75.21,42.66 66.76,43.21 C48.75,44.39 38.08,57.94 39.20,78.25 C39.77,88.51 42.70,94.74 50.04,101.35 C58.50,108.95 67.59,110.70 78.89,106.88 L 85.18 104.76 L 89.50 109.00 C93.98,113.40 101.90,116.91 107.47,116.97 C109.10,116.99 112.47,116.25 114.97,115.34 Z" fill="rgb(254,254,254)"/>
</g>
</svg>